<svg width="207" height="65" viewBox="0 0 207 65" fill="none" xmlns="http://www.w3.org/2000/svg">
<path d="M48.7714 0.368408H14.3445C6.42227 0.368408 0 6.88064 0 14.9139V49.8229C0 57.8563 6.42227 64.3684 14.3445 64.3684H48.7714C56.6938 64.3684 63.116 57.8563 63.116 49.8229V14.9139C63.116 6.88064 56.6938 0.368408 48.7714 0.368408Z" fill="url(#paint0_linear_226_17)"/>
<path d="M48.7714 0.368408H14.3445C6.42227 0.368408 0 6.88064 0 14.9139V49.8229C0 57.8563 6.42227 64.3684 14.3445 64.3684H48.7714C56.6938 64.3684 63.116 57.8563 63.116 49.8229V14.9139C63.116 6.88064 56.6938 0.368408 48.7714 0.368408Z" fill="url(#paint1_radial_226_17)"/>
<path d="M48.7714 0.368408H14.3445C6.42227 0.368408 0 6.88064 0 14.9139V49.8229C0 57.8563 6.42227 64.3684 14.3445 64.3684H48.7714C56.6938 64.3684 63.116 57.8563 63.116 49.8229V14.9139C63.116 6.88064 56.6938 0.368408 48.7714 0.368408Z" fill="url(#paint2_radial_226_17)"/>
<path d="M48.7714 0.368408H14.3445C6.42227 0.368408 0 6.88064 0 14.9139V49.8229C0 57.8563 6.42227 64.3684 14.3445 64.3684H48.7714C56.6938 64.3684 63.116 57.8563 63.116 49.8229V14.9139C63.116 6.88064 56.6938 0.368408 48.7714 0.368408Z" fill="url(#paint3_radial_226_17)"/>
<path d="M25.9265 49.5286V34.6833L40.1515 49.5286H48.0656V49.1423L31.7028 32.2346L46.8063 16.1942V16.0048H38.8409L25.9265 30.1794V16.0048H19.5132V49.5286H25.9265Z" fill="white"/>
<path d="M102.171 50.5602V35.2572L116.308 50.5602H124.185V50.1629L107.919 32.7391L122.915 16.1995V16.0048H114.994L102.157 30.6182V16.0048H95.7959V50.5602H102.164H102.171ZM135.117 51.3021C138.784 51.3021 142.792 49.9682 145.347 47.3527L141.579 43.5531C140.178 44.9846 137.384 45.8313 135.21 45.8313C131.016 45.8313 128.503 43.6581 128.12 40.6454H146.683C146.734 39.8586 146.784 39.1167 146.784 38.3673C146.784 29.8763 141.954 25.5822 134.669 25.5822C126.943 25.5822 122.027 30.9105 122.027 38.3223C122.034 46.0712 126.907 51.3021 135.117 51.3021ZM141.052 35.6543H128.207C129.124 32.4918 131.637 30.9105 134.857 30.9105C138.294 30.9105 140.662 32.4918 141.044 35.6543H141.052ZM155.217 61.719V47.6974C156.95 50.4102 160.575 51.2497 163.138 51.2497C170.762 51.2497 175.152 45.5241 175.152 38.4122C175.152 31.3003 170.279 25.6721 162.943 25.6721C160.243 25.6721 157.102 26.8113 155.225 29.5766L154.835 26.2192H149.319V61.704H155.217V61.719ZM162.503 45.3817C158.445 45.3817 155.744 42.2192 155.744 38.4197C155.744 34.6201 158.257 31.5101 162.503 31.5101C166.748 31.5101 169.261 34.6201 169.261 38.4197C169.261 42.2192 166.553 45.3817 162.495 45.3817H162.503ZM183.91 50.5677V16.0497H178.061V50.5602H183.91V50.5677ZM194.163 50.5677V37.7302C194.163 33.1738 197.014 31.5476 200.098 31.5476C202.033 31.5476 203.138 32.1995 204.343 33.1289L207 27.8905C205.7 26.6539 203.332 25.6122 200.87 25.6122C198.409 25.6122 195.902 26.0543 194.163 29.0146L193.729 26.2042H188.271V50.5376L194.163 50.5602V50.5677Z" fill="white"/>
<defs>
<linearGradient id="paint0_linear_226_17" x1="31.558" y1="0.368408" x2="31.558" y2="64.3684" gradientUnits="userSpaceOnUse">
<stop stop-color="#1FD1FF"/>
<stop offset="1" stop-color="#1BB8FF"/>
</linearGradient>
<radialGradient id="paint1_radial_226_17" cx="0" cy="0" r="1" gradientUnits="userSpaceOnUse" gradientTransform="translate(3.01488 61.9434) rotate(-45.554) scale(101.933 103.44)">
<stop stop-color="#232DE3"/>
<stop offset="1" stop-color="#232DE3" stop-opacity="0"/>
</radialGradient>
<radialGradient id="paint2_radial_226_17" cx="0" cy="0" r="1" gradientUnits="userSpaceOnUse" gradientTransform="translate(59.7166 64.003) rotate(-138.054) scale(63.6783 97.2447)">
<stop stop-color="#8B4DFF"/>
<stop offset="1" stop-color="#8B4DFF" stop-opacity="0"/>
</radialGradient>
<radialGradient id="paint3_radial_226_17" cx="0" cy="0" r="1" gradientUnits="userSpaceOnUse" gradientTransform="translate(31.0322 0.843072) rotate(90) scale(50.4587 120.735)">
<stop stop-color="#24D5FF"/>
<stop offset="1" stop-color="#1BB8FF" stop-opacity="0"/>
</radialGradient>
</defs>
</svg>
