<svg width="207" height="64" viewBox="0 0 207 64" fill="none" xmlns="http://www.w3.org/2000/svg">
<g opacity="0.7">
<path d="M105.11 37.8337H114.428V42.3229H99.438V14.0933H105.11V37.8337Z" fill="#EEEEEE"/>
<path d="M138.896 30.6347C138.896 31.4436 138.842 32.1716 138.734 32.8188H122.327C122.462 34.4365 123.029 35.7038 124.028 36.6205C125.028 37.5372 126.256 37.9955 127.715 37.9955C129.822 37.9955 131.32 37.0923 132.212 35.2858H138.329C137.681 37.4429 136.439 39.2223 134.602 40.6245C132.765 41.9994 130.51 42.6869 127.836 42.6869C125.676 42.6869 123.731 42.2151 122.002 41.2714C120.301 40.3009 118.964 38.9392 117.992 37.1866C117.046 35.434 116.574 33.4119 116.574 31.1202C116.574 28.8013 117.046 26.7657 117.992 25.0131C118.937 23.2606 120.26 21.9124 121.962 20.9688C123.664 20.0251 125.622 19.5532 127.836 19.5532C129.97 19.5532 131.874 20.0116 133.549 20.9283C135.25 21.845 136.56 23.1527 137.478 24.8513C138.424 26.523 138.896 28.4508 138.896 30.6347ZM133.022 29.017C132.995 27.5611 132.468 26.4017 131.442 25.5389C130.416 24.6491 129.16 24.2042 127.674 24.2042C126.27 24.2042 125.081 24.6356 124.109 25.4985C123.164 26.3343 122.583 27.5071 122.367 29.017H133.022Z" fill="#EEEEEE"/>
<path d="M141.578 31.0392C141.578 28.7744 142.024 26.7657 142.915 25.0131C143.833 23.2606 145.062 21.9124 146.602 20.9688C148.168 20.0251 149.91 19.5532 151.828 19.5532C153.502 19.5532 154.961 19.8903 156.203 20.5643C157.473 21.2384 158.486 22.0877 159.242 23.1123V19.9172H164.954V42.323H159.242V39.0471C158.512 40.0987 157.5 40.9749 156.203 41.6758C154.934 42.35 153.462 42.6869 151.787 42.6869C149.897 42.6869 148.168 42.2016 146.602 41.2311C145.062 40.2603 143.833 38.8987 142.915 37.1463C142.024 35.3667 141.578 33.331 141.578 31.0392ZM159.242 31.1202C159.242 29.745 158.972 28.5722 158.431 27.6015C157.891 26.6039 157.162 25.849 156.244 25.3367C155.326 24.7974 154.34 24.5278 153.286 24.5278C152.233 24.5278 151.261 24.7839 150.369 25.2962C149.478 25.8085 148.749 26.5635 148.182 27.5611C147.642 28.5317 147.371 29.6912 147.371 31.0392C147.371 32.3873 147.642 33.5738 148.182 34.5984C148.749 35.5959 149.478 36.3643 150.369 36.9036C151.288 37.4429 152.26 37.7124 153.286 37.7124C154.34 37.7124 155.326 37.4564 156.244 36.9441C157.162 36.4048 157.891 35.6498 158.431 34.6792C158.972 33.6814 159.242 32.4952 159.242 31.1202Z" fill="#EEEEEE"/>
<path d="M176.166 23.1527C176.895 22.1281 177.895 21.2788 179.164 20.6048C180.46 19.9037 181.932 19.5532 183.58 19.5532C185.497 19.5532 187.226 20.0251 188.765 20.9688C190.332 21.9124 191.561 23.2606 192.452 25.0131C193.37 26.7387 193.83 28.7474 193.83 31.0392C193.83 33.331 193.37 35.3667 192.452 37.1463C191.561 38.8987 190.332 40.2603 188.765 41.2311C187.226 42.2016 185.497 42.6869 183.58 42.6869C181.932 42.6869 180.474 42.35 179.204 41.6758C177.962 41.0019 176.949 40.1525 176.166 39.1279V53H170.494V19.9172H176.166V23.1527ZM188.036 31.0392C188.036 29.6912 187.753 28.5317 187.185 27.5611C186.645 26.5635 185.916 25.8085 184.998 25.2962C184.106 24.7839 183.134 24.5278 182.081 24.5278C181.055 24.5278 180.082 24.7974 179.164 25.3367C178.273 25.8489 177.543 26.6039 176.976 27.6015C176.436 28.5991 176.166 29.772 176.166 31.1202C176.166 32.4682 176.436 33.6411 176.976 34.6387C177.543 35.6362 178.273 36.4048 179.164 36.9441C180.082 37.4564 181.055 37.7124 182.081 37.7124C183.134 37.7124 184.106 37.4429 184.998 36.9036C185.916 36.3643 186.645 35.5959 187.185 34.5984C187.753 33.6006 188.036 32.4143 188.036 31.0392Z" fill="#EEEEEE"/>
<mask id="mask0_226_52" style="mask-type:luminance" maskUnits="userSpaceOnUse" x="14" y="11" width="50" height="33">
<path d="M63.7972 11H14V43.2987H63.7972V11Z" fill="white"/>
</mask>
<g mask="url(#mask0_226_52)">
<path d="M58.8573 33.296C58.8573 40.4092 50.1613 43.2998 39.3638 43.2998C28.5664 43.2998 19.7437 40.4092 19.7437 33.296C19.7437 26.1827 28.5031 20.4268 39.3006 20.4268C50.098 20.4268 58.8573 26.1953 58.8573 33.296Z" fill="#4BAF74"/>
<path d="M56.883 17.7882C56.883 14.0431 53.8196 11.0017 50.0476 11.0017C47.921 11.0017 46.0223 11.9694 44.769 13.4775C43.0603 13.1005 41.2374 12.8869 39.3513 12.8869C37.4654 12.8869 35.6425 13.0879 33.9336 13.4775C32.6679 11.9694 30.7691 11.0017 28.6552 11.0017C24.8831 11.0017 21.8198 14.0431 21.8198 17.7882C21.8198 19.0198 22.1489 20.1635 22.7185 21.1563C22.1742 22.3125 21.8831 23.5442 21.8831 24.8261C21.8831 31.424 29.7058 36.7652 39.3513 36.7652C48.9969 36.7652 56.8196 31.424 56.8196 24.8261C56.8196 23.5442 56.5286 22.3125 55.9842 21.1563C56.5537 20.1635 56.883 19.0198 56.883 17.7882Z" fill="#4BC174"/>
<path d="M28.1108 21.5666C30.4178 21.5666 32.288 19.7098 32.288 17.4193C32.288 15.1288 30.4178 13.272 28.1108 13.272C25.8038 13.272 23.9336 15.1288 23.9336 17.4193C23.9336 19.7098 25.8038 21.5666 28.1108 21.5666Z" fill="#EEEEEE"/>
<path d="M50.3896 21.5666C52.6966 21.5666 54.5667 19.7098 54.5667 17.4193C54.5667 15.1288 52.6966 13.272 50.3896 13.272C48.0825 13.272 46.2124 15.1288 46.2124 17.4193C46.2124 19.7098 48.0825 21.5666 50.3896 21.5666Z" fill="#EEEEEE"/>
<path d="M25.8715 42.7924C26.7702 42.7924 27.4791 42.0132 27.3778 41.1336C27.0107 38.0167 25.4538 31.2679 18.6057 27.2086C9.49181 21.8045 16.707 40.4046 16.707 40.4046L14.8209 41.4855C14.188 41.8498 14.4538 42.7924 15.1753 42.7924H25.8715Z" fill="#4BC174"/>
<path d="M53.08 42.7924C52.27 42.7924 51.637 42.0132 51.7256 41.1336C52.0421 38.0294 53.4598 31.2679 59.6369 27.2086C67.8775 21.8045 61.3586 40.4046 61.3586 40.4046L63.0673 41.4855C63.637 41.8498 63.3964 42.7924 62.7509 42.7924H53.08Z" fill="#4BC174"/>
<path d="M28.1062 18.1705C28.5256 18.1705 28.8657 17.8329 28.8657 17.4164C28.8657 17 28.5256 16.6624 28.1062 16.6624C27.6867 16.6624 27.3467 17 27.3467 17.4164C27.3467 17.8329 27.6867 18.1705 28.1062 18.1705Z" fill="#0D0D0D"/>
<path d="M50.3777 18.1705C50.7971 18.1705 51.1371 17.8329 51.1371 17.4164C51.1371 17 50.7971 16.6624 50.3777 16.6624C49.9583 16.6624 49.6182 17 49.6182 17.4164C49.6182 17.8329 49.9583 18.1705 50.3777 18.1705Z" fill="#0D0D0D"/>
</g>
</g>
</svg>
