<svg width="207" height="64" viewBox="0 0 207 64" fill="none" xmlns="http://www.w3.org/2000/svg">
<path opacity="0.3" d="M106.189 40L112.384 31.474V33.532L106.483 25.3H109.57L113.959 31.39L112.699 31.411L117.046 25.3H120.007L114.148 33.385V31.411L120.385 40H117.235L112.615 33.532H113.854L109.297 40H106.189ZM122.042 40V25.3H128.468C130.064 25.3 131.464 25.608 132.668 26.224C133.872 26.84 134.81 27.694 135.482 28.786C136.154 29.878 136.49 31.166 136.49 32.65C136.49 34.12 136.154 35.408 135.482 36.514C134.81 37.606 133.872 38.46 132.668 39.076C131.464 39.692 130.064 40 128.468 40H122.042ZM124.772 37.69H128.342C129.448 37.69 130.4 37.48 131.198 37.06C132.01 36.64 132.633 36.052 133.067 35.296C133.515 34.54 133.739 33.658 133.739 32.65C133.739 31.628 133.515 30.746 133.067 30.004C132.633 29.248 132.01 28.66 131.198 28.24C130.4 27.82 129.448 27.61 128.342 27.61H124.772V37.69ZM141.912 31.411H149.22V33.658H141.912V31.411ZM142.122 37.711H150.417V40H139.392V25.3H150.123V27.589H142.122V37.711ZM155.959 32.062H163.288V34.372H155.959V32.062ZM156.19 40H153.46V25.3H164.191V27.589H156.19V40ZM166.831 40V25.3H169.561V40H166.831Z" fill="white"/>
<g opacity="0.3">
<path d="M63.9743 32.824C61.3715 34.2899 58.3851 34.9727 55.3882 34.787C53.0695 34.7973 50.8497 33.8702 49.253 32.2241C48.0684 30.7582 47.594 28.8598 47.9541 27.0238C48.0572 26.3398 48.2679 25.6752 48.5785 25.0547L48.6212 24.9694C49.7163 22.9326 51.3352 21.2102 53.3172 19.9723C57.3697 17.4438 62.4759 17.1686 66.7877 19.2448C68.9001 20.2614 70.7061 21.7975 72.0285 23.7037C74.7073 27.5602 75.081 32.524 73.0069 36.7235C71.9835 38.7942 70.4257 40.5679 68.4881 41.8688C66.54 43.1756 64.28 43.9685 61.9274 44.1699L62.0713 45.7725C64.7124 45.5457 67.2491 44.6555 69.4362 43.1871C71.6122 41.7272 73.3621 39.7358 74.5115 37.4111C76.8383 32.6976 76.4182 27.1266 73.4096 22.7989C71.9235 20.6599 69.8952 18.9357 67.5227 17.7964C62.6791 15.4693 56.9466 15.7856 52.4006 18.631C50.1777 20.0219 48.3642 21.9565 47.1382 24.2437L47.0801 24.3586C46.6947 25.1291 46.434 25.954 46.308 26.803C45.8819 29.089 46.4872 31.4439 47.9677 33.26C49.8509 35.266 52.5081 36.406 55.2906 36.403C58.9144 36.6243 62.5141 35.6906 65.5506 33.7414L63.9743 32.824Z" fill="white"/>
<path d="M67.154 34.6473C64.0707 37.0797 60.253 38.447 56.2944 38.5377C49.7664 38.8867 47.0443 36.8335 47.0196 36.8124L46.4928 37.4413L47.0233 36.8233L45.9585 38.0588C46.074 38.1513 48.683 40.1924 54.8114 40.1924C55.3135 40.1924 55.8404 40.1924 56.3889 40.1506C63.4376 39.7702 67.3103 36.7948 68.6593 35.5236L67.154 34.6473Z" fill="white"/>
<path d="M69.9836 36.3086C69.0867 37.448 67.9861 38.418 66.7353 39.1721C62.3178 41.931 56.699 42.2872 52.7645 42.0949L52.6848 43.706C53.3482 43.7374 53.9807 43.7513 54.5977 43.7513C65.6915 43.7513 70.1744 38.8619 71.427 37.1166L69.9829 36.2959" fill="white"/>
<path d="M69.5612 30.2163C70.2881 30.2078 70.87 29.6236 70.8607 28.9124C70.8521 28.2006 70.2554 27.6309 69.529 27.64C68.8089 27.6485 68.2295 28.223 68.2295 28.9281C68.2351 29.6436 68.8305 30.2193 69.5612 30.2163Z" fill="white"/>
</g>
</svg>
