<svg width="65" height="65" viewBox="0 0 65 65" fill="none" xmlns="http://www.w3.org/2000/svg">
<g clip-path="url(#clip0_19_564)">
<path d="M32.5 65C50.4493 65 65 50.4493 65 32.5C65 14.5507 50.4493 0 32.5 0C14.5507 0 0 14.5507 0 32.5C0 50.4493 14.5507 65 32.5 65Z" fill="#7B2BF9"/>
<path d="M55.861 27.534C54.925 23.049 52.702 18.941 49.387 15.626C44.876 11.115 38.883 8.63202 32.5 8.63202C26.117 8.63202 20.124 11.102 15.613 15.613C14.508 16.718 13.546 17.901 12.701 19.149C12.454 19.487 12.22 19.838 12.025 20.215C9.81496 23.894 8.63196 28.093 8.63196 32.5C8.63196 38.883 11.115 44.876 15.626 49.387C20.137 53.898 26.13 56.381 32.513 56.381C38.896 56.381 44.889 53.898 49.4 49.387C51.519 47.268 53.209 44.798 54.392 42.133C54.535 41.847 54.652 41.535 54.769 41.223C55.848 38.493 56.407 35.542 56.407 32.513C56.407 30.914 56.251 29.393 55.939 27.859C55.926 27.781 55.874 27.586 55.861 27.534ZM47.58 16.627C47.71 16.757 47.853 16.887 47.996 17.03C50.102 19.136 51.74 21.606 52.819 24.284C52.923 24.544 52.702 24.843 52.403 24.791C51.779 24.674 51.064 24.635 50.284 24.648C49.738 24.661 49.257 24.271 49.166 23.751C48.737 21.359 48.113 19.162 47.333 17.238C47.294 17.134 47.242 17.03 47.203 16.9C47.099 16.653 47.398 16.432 47.58 16.627ZM49.855 30.628C49.855 30.381 50.167 30.264 50.323 30.472C50.492 30.719 50.674 30.979 50.843 31.226C51.064 31.564 51.272 31.902 51.454 32.24C51.571 32.448 51.545 32.708 51.389 32.89C51.142 33.163 50.856 33.462 50.557 33.761C50.453 33.865 50.336 33.982 50.219 34.099C50.076 34.229 49.829 34.125 49.842 33.943C49.855 33.579 49.868 33.228 49.868 32.851C49.881 32.084 49.881 31.356 49.855 30.628ZM19.786 14.664C23.478 12.025 27.872 10.608 32.5 10.608C33.722 10.608 34.931 10.712 36.114 10.894C36.426 10.946 36.543 11.349 36.283 11.544C35.139 12.441 34.086 13.767 33.137 15.483C32.916 15.912 32.422 16.107 31.954 15.977C28.834 15.106 25.766 14.69 22.932 14.781C21.879 14.82 20.904 14.924 19.968 15.093C19.708 15.158 19.578 14.82 19.786 14.664ZM16.666 47.385C16.198 46.527 16.796 44.512 19.825 41.444C20.137 41.132 20.111 40.612 19.76 40.326C19.643 40.235 19.526 40.144 19.396 40.04C19.097 39.806 18.655 39.819 18.382 40.092C18.317 40.157 18.278 40.196 18.265 40.209C16.757 41.756 15.691 43.199 15.106 44.499C14.937 44.876 14.43 44.915 14.209 44.564C11.856 41.028 10.595 36.868 10.595 32.513C10.595 30.966 10.751 29.419 11.076 27.937C11.128 27.716 11.44 27.703 11.518 27.924C11.973 29.419 12.714 30.979 13.728 32.539C15.106 34.645 16.913 36.673 19.071 38.545C19.799 39.182 20.579 39.793 21.398 40.391C23.049 41.6 24.817 42.705 26.715 43.68C27.547 44.122 28.379 44.525 29.211 44.915C29.679 45.123 30.212 45.136 30.68 44.954C31.083 44.798 31.473 44.642 31.876 44.473C32.318 44.291 32.552 43.823 32.435 43.355C32.422 43.303 32.409 43.251 32.409 43.225C31.746 40.456 31.382 37.323 31.33 34.06C31.33 34.021 31.33 33.28 31.33 32.513C31.33 31.746 31.356 31.395 31.382 30.836C31.577 26.884 32.253 23.179 33.319 20.046C33.41 19.76 33.267 19.448 32.968 19.344C32.695 19.253 32.409 19.162 32.123 19.071C31.85 18.98 31.538 19.136 31.434 19.422C30.277 22.815 29.562 26.832 29.38 31.083C29.354 31.629 29.068 32.123 28.6 32.396C26.078 33.891 23.777 35.477 21.762 37.063C21.346 37.401 20.748 37.375 20.345 37.037C18.343 35.295 16.653 33.41 15.379 31.447C12.87 27.599 12.272 23.985 13.702 21.242L13.715 21.229C13.897 20.93 14.092 20.631 14.287 20.345C15.925 18.187 18.967 16.926 23.01 16.783C23.257 16.77 23.53 16.77 23.777 16.77C26.26 16.77 28.912 17.186 31.616 17.966C31.668 17.979 32.058 18.096 32.136 18.122C32.825 18.343 33.995 18.746 34.151 18.798C34.216 18.824 34.58 18.967 34.632 18.98C35.958 19.5 37.271 20.085 38.571 20.761C41.093 22.074 43.394 23.608 45.422 25.298C41.587 26.169 37.128 27.872 32.643 30.147C32.435 30.251 32.292 30.459 32.279 30.693C32.266 30.966 32.24 31.525 32.227 31.98C32.214 32.253 32.513 32.448 32.76 32.318C37.206 29.978 41.639 28.249 45.448 27.313C46.163 27.144 46.618 26.468 46.527 25.74C46.462 25.233 46.384 24.726 46.293 24.245C46.189 23.634 45.838 23.075 45.357 22.711C43.576 21.359 41.613 20.111 39.507 19.006C38.09 18.265 36.66 17.628 35.204 17.069C34.905 16.952 34.762 16.588 34.931 16.302C36.413 13.65 38.181 12.168 39.91 12.168C39.923 12.168 39.949 12.168 39.962 12.168C41.99 12.207 44.005 14.313 45.513 17.966C46.267 19.812 46.852 21.944 47.268 24.258C47.385 24.908 47.476 25.571 47.554 26.247C47.593 26.598 47.658 27.131 47.697 27.365C47.866 29.12 47.931 30.953 47.905 32.812C47.879 33.995 47.827 35.165 47.723 36.296C45.006 38.48 41.652 40.677 37.96 42.627C36.959 43.147 35.958 43.654 34.97 44.122C34.762 44.226 33.904 44.603 33.852 44.629C32.916 45.058 31.993 45.435 31.07 45.799C31.018 45.825 29.978 46.215 29.913 46.241C29.835 46.267 29.302 46.462 29.237 46.488C27.248 47.19 25.337 47.723 23.595 48.061C19.188 48.906 17.121 48.256 16.666 47.385ZM22.659 38.883C24.583 37.323 26.845 35.737 29.328 34.255C29.38 37.427 29.731 40.482 30.355 43.225C29.445 42.822 28.522 42.406 27.612 41.925C25.844 41.015 24.18 39.988 22.659 38.883ZM35.321 54.223C34.398 54.34 33.449 54.405 32.5 54.405C28.236 54.405 24.167 53.196 20.683 50.947C20.449 50.791 20.553 50.414 20.826 50.401C20.878 50.401 20.943 50.401 20.982 50.388C21.866 50.336 22.841 50.206 23.894 49.998C26.13 49.556 28.626 48.828 31.239 47.827C31.473 47.736 31.733 47.853 31.837 48.087C32.851 50.557 34.086 52.416 35.503 53.599C35.75 53.807 35.633 54.184 35.321 54.223ZM44.59 48.373C43.03 51.454 41.106 53.17 39.234 53.131C37.206 53.092 35.191 50.986 33.683 47.333C33.592 47.112 33.696 46.839 33.917 46.735C33.93 46.722 33.943 46.722 33.969 46.709C34.06 46.67 34.177 46.657 34.281 46.683C37.076 47.463 39.845 47.879 42.432 47.879C42.705 47.879 42.991 47.879 43.264 47.866C43.576 47.853 43.901 47.84 44.213 47.814C44.512 47.814 44.72 48.113 44.59 48.373ZM45.266 45.721C44.616 45.812 43.927 45.877 43.212 45.903C41.457 45.968 39.598 45.812 37.7 45.461C37.466 45.422 37.427 45.097 37.635 44.993C38.051 44.785 38.467 44.564 38.883 44.343C41.795 42.796 44.525 41.106 46.904 39.377C47.073 39.247 47.333 39.403 47.294 39.611C46.956 41.6 46.514 43.472 45.929 45.162C45.812 45.474 45.565 45.682 45.266 45.721ZM48.503 47.463C48.347 47.632 48.165 47.814 47.996 47.983C47.71 48.269 47.385 48.568 47.086 48.841C46.891 49.01 46.592 48.802 46.696 48.568C46.722 48.503 46.761 48.438 46.787 48.36C46.917 48.074 47.034 47.775 47.177 47.476C47.203 47.411 47.268 47.359 47.333 47.333C47.632 47.255 47.944 47.164 48.23 47.073C48.49 46.995 48.672 47.294 48.503 47.463ZM52.897 40.521C52.806 40.742 52.728 40.963 52.624 41.184C52.598 41.223 52.468 41.496 52.455 41.535C51.727 42.874 50.531 43.927 48.971 44.668C48.607 44.837 48.217 44.512 48.321 44.122C48.867 42.198 49.257 40.118 49.53 37.921C49.582 37.505 49.777 37.141 50.089 36.868C50.752 36.296 51.376 35.711 51.948 35.139C52.221 34.866 52.702 34.983 52.819 35.36C53.378 37.245 53.417 39 52.897 40.521ZM53.339 30.264C53.183 30.55 52.754 30.563 52.572 30.29C52.546 30.251 52.52 30.199 52.494 30.16C51.844 29.146 51.09 28.171 50.258 27.209C50.05 26.975 50.219 26.611 50.531 26.598H50.544C52.507 26.598 53.534 27.092 53.846 27.677C54.093 28.171 54.015 29.042 53.339 30.264ZM54.405 33.15C54.405 33.293 54.197 33.332 54.145 33.202C54.119 33.15 54.093 33.085 54.067 33.033C54.015 32.929 54.028 32.799 54.106 32.695C54.119 32.682 54.145 32.643 54.184 32.591C54.275 32.474 54.418 32.487 54.418 32.617C54.405 32.799 54.405 32.968 54.405 33.15Z" fill="white"/>
</g>
<defs>
<clipPath id="clip0_19_564">
<rect width="65" height="65" fill="white"/>
</clipPath>
</defs>
</svg>
