<svg width="65" height="65" viewBox="0 0 65 65" fill="none" xmlns="http://www.w3.org/2000/svg">
<g clip-path="url(#clip0_19_614)">
<mask id="mask0_19_614" style="mask-type:alpha" maskUnits="userSpaceOnUse" x="0" y="0" width="65" height="65">
<path d="M32.5 65C50.4493 65 65 50.4493 65 32.5C65 14.5507 50.4493 0 32.5 0C14.5507 0 0 14.5507 0 32.5C0 50.4493 14.5507 65 32.5 65Z" fill="#C4C4C4"/>
</mask>
<g mask="url(#mask0_19_614)">
<path d="M77.6344 -12.7969H-12.7969V77.6344H77.6344V-12.7969Z" fill="url(#paint0_radial_19_614)"/>
<mask id="mask1_19_614" style="mask-type:alpha" maskUnits="userSpaceOnUse" x="-13" y="-13" width="91" height="91">
<path d="M77.6344 -12.7969H-12.7969V77.6344H77.6344V-12.7969Z" fill="url(#paint1_radial_19_614)"/>
</mask>
<g mask="url(#mask1_19_614)">
<g opacity="0.5" filter="url(#filter0_f_19_614)">
<path d="M32.4762 140.615C85.3481 140.615 128.209 109.633 128.209 71.4136C128.209 33.1945 85.3481 2.21179 32.4762 2.21179C-20.3957 2.21179 -63.2568 33.1945 -63.2568 71.4136C-63.2568 109.633 -20.3957 140.615 32.4762 140.615Z" fill="url(#paint2_radial_19_614)"/>
</g>
</g>
<g filter="url(#filter1_d_19_614)">
<path fill-rule="evenodd" clip-rule="evenodd" d="M32.5989 8.12501C36.7997 8.12182 40.9305 9.19505 44.5941 11.2414C48.2576 13.2878 51.3303 16.2385 53.5165 19.8095C50.1363 19.8095 46.8946 21.1463 44.5045 23.5257C42.1141 25.9051 40.7714 29.1326 40.7714 32.4976C40.7714 35.8627 42.1141 39.09 44.5045 41.4696C46.8946 43.849 50.1363 45.1858 53.5165 45.1858C51.2927 48.8181 48.1528 51.8078 44.4088 53.8578C40.6648 55.9077 36.4471 56.9467 32.175 56.8711C27.9027 56.7956 23.7248 55.6085 20.0562 53.4276C16.3876 51.2466 13.3562 48.1479 11.2633 44.4393C9.17034 40.7306 8.08872 36.5414 8.12593 32.2877C8.16312 28.0341 9.31785 23.8644 11.4753 20.1925C13.6328 16.5208 16.7179 13.4751 20.424 11.3581C24.1302 9.24104 28.3284 8.12643 32.6014 8.12501H32.5989Z" fill="#FFC780"/>
<path fill-rule="evenodd" clip-rule="evenodd" d="M53.5166 19.8093C50.1364 19.8093 46.8945 21.1461 44.5043 23.5255C42.1141 25.9051 40.7715 29.1324 40.7715 32.4975C40.7715 35.8625 42.1141 39.09 44.5043 41.4694C46.8945 43.849 50.1364 45.1857 53.5166 45.1857L53.4361 45.3058C50.9464 47.5523 47.8544 49.0299 44.5366 49.5586C41.2186 50.0873 37.8178 49.6447 34.7482 48.2842C31.6784 46.9239 29.0721 44.7045 27.2464 41.8961C25.4205 39.0879 24.4542 35.8119 24.4648 32.4669C24.4754 29.1216 25.4624 25.8517 27.3057 23.0551C29.1493 20.2582 31.7696 18.0552 34.8477 16.714C37.9261 15.3728 41.3295 14.9514 44.6441 15.5009C47.9584 16.0505 51.0411 17.5473 53.5166 19.8093Z" fill="url(#paint3_linear_19_614)"/>
</g>
</g>
</g>
<defs>
<filter id="filter0_f_19_614" x="-178.395" y="-112.927" width="421.743" height="368.681" filterUnits="userSpaceOnUse" color-interpolation-filters="sRGB">
<feFlood flood-opacity="0" result="BackgroundImageFix"/>
<feBlend mode="normal" in="SourceGraphic" in2="BackgroundImageFix" result="shape"/>
<feGaussianBlur stdDeviation="57.5693" result="effect1_foregroundBlur_19_614"/>
</filter>
<filter id="filter1_d_19_614" x="3.125" y="3.125" width="55.3916" height="58.75" filterUnits="userSpaceOnUse" color-interpolation-filters="sRGB">
<feFlood flood-opacity="0" result="BackgroundImageFix"/>
<feColorMatrix in="SourceAlpha" type="matrix" values="0 0 0 0 0 0 0 0 0 0 0 0 0 0 0 0 0 0 127 0" result="hardAlpha"/>
<feOffset/>
<feGaussianBlur stdDeviation="2.5"/>
<feComposite in2="hardAlpha" operator="out"/>
<feColorMatrix type="matrix" values="0 0 0 0 0 0 0 0 0 0 0 0 0 0 0 0 0 0 0.1 0"/>
<feBlend mode="normal" in2="BackgroundImageFix" result="effect1_dropShadow_19_614"/>
<feBlend mode="normal" in="SourceGraphic" in2="effect1_dropShadow_19_614" result="shape"/>
</filter>
<radialGradient id="paint0_radial_19_614" cx="0" cy="0" r="1" gradientUnits="userSpaceOnUse" gradientTransform="translate(32.4188 32.4188) rotate(90) scale(45.2156)">
<stop stop-color="#311810"/>
<stop offset="1" stop-color="#1E0E0A"/>
</radialGradient>
<radialGradient id="paint1_radial_19_614" cx="0" cy="0" r="1" gradientUnits="userSpaceOnUse" gradientTransform="translate(32.4188 32.4188) rotate(90) scale(45.2156)">
<stop stop-color="#311810"/>
<stop offset="1" stop-color="#1E0E0A"/>
</radialGradient>
<radialGradient id="paint2_radial_19_614" cx="0" cy="0" r="1" gradientUnits="userSpaceOnUse" gradientTransform="translate(32.4762 71.4136) rotate(90) scale(69.2018 95.733)">
<stop stop-color="#A744F4"/>
<stop offset="0.411458" stop-color="#B2B1EE" stop-opacity="0.46"/>
<stop offset="1" stop-color="#B1C2EE" stop-opacity="0"/>
</radialGradient>
<linearGradient id="paint3_linear_19_614" x1="38.9893" y1="49.7802" x2="38.9893" y2="15.2689" gradientUnits="userSpaceOnUse">
<stop stop-color="#FFC780"/>
<stop offset="1" stop-color="#964B48"/>
</linearGradient>
<clipPath id="clip0_19_614">
<rect width="65" height="65" fill="white"/>
</clipPath>
</defs>
</svg>
