<svg width="65" height="65" viewBox="0 0 65 65" fill="none" xmlns="http://www.w3.org/2000/svg">
<path d="M32.429 64.5277C50.2372 64.5277 64.6736 50.0914 64.6736 32.2832C64.6736 14.475 50.2372 0.0385742 32.429 0.0385742C14.6208 0.0385742 0.184448 14.475 0.184448 32.2832C0.184448 50.0914 14.6208 64.5277 32.429 64.5277Z" fill="#ED6C53"/>
<path d="M32.429 64.5277C50.2372 64.5277 64.6736 50.0914 64.6736 32.2832C64.6736 14.475 50.2372 0.0385742 32.429 0.0385742C14.6208 0.0385742 0.184448 14.475 0.184448 32.2832C0.184448 50.0914 14.6208 64.5277 32.429 64.5277Z" fill="#F3725A"/>
<path d="M32.429 64.5277C50.2372 64.5277 64.6736 50.0914 64.6736 32.2832C64.6736 14.475 50.2372 0.0385742 32.429 0.0385742C14.6208 0.0385742 0.184448 14.475 0.184448 32.2832C0.184448 50.0914 14.6208 64.5277 32.429 64.5277Z" fill="url(#paint0_linear_19_575)"/>
<path d="M32.3764 61.9458C48.7879 61.9458 62.092 48.6417 62.092 32.2302C62.092 15.8188 48.7879 2.51465 32.3764 2.51465C15.9649 2.51465 2.66077 15.8188 2.66077 32.2302C2.66077 48.6417 15.9649 61.9458 32.3764 61.9458Z" fill="url(#paint1_linear_19_575)"/>
<path fill-rule="evenodd" clip-rule="evenodd" d="M27.6066 50.3899C29.9168 50.3899 32.5587 49.8049 35.2397 48.711C35.3236 48.6777 35.4071 48.6418 35.4901 48.6047C35.5664 48.5706 35.6423 48.5358 35.7169 48.501L35.7502 48.4861L35.7555 48.4835C36.888 48.204 38.0663 47.8208 39.2436 47.3341C46.8065 44.2275 50.0026 39.2657 50.466 35.6157C51.0231 31.15 48.1818 26.8792 44.6106 23.6754C42.9118 21.6975 40.8062 19.9662 38.714 18.6301C36.0641 16.9324 33.3503 15.769 30.9637 15.2331C28.5855 14.6989 26.4954 14.7799 25.1254 15.6213C23.8091 16.4255 22.8408 17.9549 22.1727 20.2426C21.197 21.3743 20.4787 23.0868 19.9885 25.4126C19.4935 27.7613 19.2285 30.7518 19.1761 34.4355C19.1233 38.2884 19.3883 41.4417 19.9735 43.8742C20.5577 46.3025 21.4664 48.0365 22.7228 49.021C23.8712 49.9223 25.5689 50.3899 27.6066 50.3899ZM37.0328 45.0905C39.5127 44.0703 41.5254 42.8499 43.1321 41.5395C41.5644 43.6046 39.0551 45.6778 35.3445 47.3062C34.5183 47.5035 33.721 47.6404 32.9654 47.7161C32.1747 47.7952 31.4293 47.8075 30.743 47.7532C29.3956 47.6465 28.2885 47.284 27.5107 46.6772L27.4197 46.6019C28.031 46.7105 28.6924 46.7698 29.3988 46.7698C31.709 46.7698 34.3518 46.184 37.0328 45.0905ZM45.1976 36.8339C45.1807 36.9929 45.1551 37.1547 45.1222 37.3213C45.0916 37.4753 45.0549 37.6335 45.0125 37.7975C43.3798 40.0029 40.6667 42.2396 36.5555 43.9338C34.4459 44.801 32.4011 45.3164 30.5969 45.4778C28.8185 45.6368 27.2869 45.4514 26.1566 44.9345C24.9518 42.6086 24.3662 38.6509 24.447 33.0757C24.499 29.5592 24.7489 26.6994 25.2 24.47C25.6412 22.2885 26.2716 20.7285 27.0818 19.7452C29.6123 19.9285 32.9396 21.1687 36.2359 23.2846C38.631 24.8199 41.0425 26.8848 42.7689 29.2315C44.4967 31.5791 45.5279 34.1926 45.1976 36.8339ZM36.9222 22.2389C34.0104 20.3747 31.02 19.152 28.4705 18.7008C28.7568 18.5858 29.08 18.5002 29.44 18.4456C29.7486 18.3988 30.0842 18.3747 30.446 18.3747C33.1079 18.3747 36.7739 19.6969 40.2625 21.9317C41.4501 22.6878 42.6377 23.5814 43.7446 24.5777C45.947 27.1596 47.3766 30.174 47.0015 33.2139C46.9254 33.8246 46.7625 34.4803 46.4972 35.1584C46.3129 32.6745 45.1631 30.2906 43.529 28.1663C41.7208 25.8147 39.3097 23.7686 36.9222 22.2389ZM23.3114 20.8437C23.5263 20.6245 23.7594 20.4376 24.0009 20.2913C24.2033 20.1663 24.4288 20.0623 24.6766 19.9794C24.9349 19.8929 25.2182 19.829 25.5249 19.7879C24.8022 20.9826 24.2584 22.5994 23.8775 24.6607C23.4619 26.9074 23.2373 29.6938 23.1907 33.059C23.1299 37.1751 23.438 40.4911 24.1141 42.9856C23.5578 42.0251 23.1192 40.7397 22.8058 39.1258C22.3814 36.9393 22.1892 34.1675 22.2358 30.8201C22.2935 26.5367 22.65 23.2252 23.3114 20.8437ZM28.2352 16.1194C30.1339 16.1194 32.5547 16.7972 35.0594 18.006C33.9332 17.6274 32.8522 17.368 31.8506 17.2367C30.0323 16.9987 28.4518 17.1802 27.3478 17.8652C27.0517 18.0463 26.7897 18.258 26.5322 18.5078C25.5893 18.4963 24.7378 18.6235 24.0204 18.9018C24.5167 17.831 25.12 17.1007 25.8055 16.6824C26.3968 16.3124 27.2083 16.1194 28.2352 16.1194ZM25.0237 45.7301L25.085 45.768C25.1391 45.8009 25.1946 45.8338 25.2506 45.8655C25.6732 46.6019 26.1682 47.1965 26.7373 47.6446C27.5888 48.3145 28.7413 48.7393 30.1091 48.9186C28.8802 49.1312 27.7362 49.1954 26.7227 49.1136C25.3807 49.0058 24.2788 48.6429 23.5068 48.0415C22.4609 47.2171 21.664 45.6804 21.145 43.3997C20.6269 41.1239 20.3916 38.1345 20.4436 34.4403C20.4942 30.8261 20.757 27.9095 21.2329 25.6552C21.0878 27.1942 21.0021 28.9084 20.9799 30.8038C20.9213 34.6569 21.1863 37.81 21.7727 40.2422C22.3587 42.6709 23.2706 44.4049 24.5265 45.3891L24.53 45.3918C24.6521 45.4828 24.7773 45.5707 24.9074 45.6556L25.0237 45.7301ZM48.2438 33.3716C48.3917 32.1677 48.2938 30.9771 48.0025 29.8198C48.9595 31.6281 49.4463 33.5455 49.2012 35.469C48.8624 38.1601 46.774 41.7594 42.0022 44.5808C44.2876 42.5268 45.6097 40.3049 46.1703 38.3305C47.4072 36.606 48.0541 34.8761 48.2438 33.3716Z" fill="white"/>
<defs>
<linearGradient id="paint0_linear_19_575" x1="3.07343" y1="41.3102" x2="64.5683" y2="26.8651" gradientUnits="userSpaceOnUse">
<stop stop-color="#FF6C2E"/>
<stop offset="1" stop-color="#F3725A" stop-opacity="0"/>
</linearGradient>
<linearGradient id="paint1_linear_19_575" x1="52.187" y1="15.7216" x2="2.66081" y2="53.2789" gradientUnits="userSpaceOnUse">
<stop stop-color="#FFA756"/>
<stop offset="1" stop-color="#F8765E" stop-opacity="0"/>
</linearGradient>
</defs>
</svg>
