<svg width="65" height="65" viewBox="0 0 65 65" fill="none" xmlns="http://www.w3.org/2000/svg">
<g clip-path="url(#clip0_19_631)">
<path d="M64.9957 32.5864C64.9957 36.8466 64.1569 41.065 62.5273 45.0009C60.8977 48.9367 58.5092 52.5129 55.498 55.5253C52.4869 58.5376 48.9122 60.9272 44.978 62.5575C41.0438 64.1877 36.8271 65.0269 32.5687 65.0269C28.3103 65.0269 24.0937 64.1877 20.1594 62.5575C16.2252 60.9272 12.6505 58.5376 9.63936 55.5253C6.62824 52.5129 4.23969 48.9367 2.61008 45.0009C0.980471 41.065 0.141723 36.8466 0.141724 32.5864C0.141725 23.9827 3.55813 15.7314 9.63937 9.64764C15.7206 3.56388 23.9685 0.146057 32.5687 0.146057C41.1689 0.146057 49.4168 3.56388 55.498 9.64764C61.5793 15.7314 64.9957 23.9827 64.9957 32.5864Z" fill="#1E1E1E"/>
<path fill-rule="evenodd" clip-rule="evenodd" d="M32.5974 5.91944C17.8912 5.91944 5.96605 17.8683 5.96605 32.6151C5.96605 47.3619 17.8912 59.3106 32.5974 59.3106C47.3035 59.3106 59.2285 47.3619 59.2285 32.6151C59.2285 17.8736 47.3034 5.91944 32.5974 5.91944ZM3.26562 32.6151C3.26562 16.373 16.4002 3.21252 32.5974 3.21252C48.7948 3.21252 61.9294 16.3786 61.9294 32.6151C61.9294 48.8573 48.7946 62.018 32.5974 62.018C16.4002 62.018 3.26562 48.8573 3.26562 32.6151Z" fill="#FF7B7C"/>
<path fill-rule="evenodd" clip-rule="evenodd" d="M44.1767 25.6096L36.7776 25.301L41.8057 19.8438L39.7804 17.819L34.331 22.8431L34.034 15.4261H31.177L30.8691 22.8431L25.4251 17.8028L23.4052 19.833L28.4225 25.2956L21.0181 25.5879V28.4573L28.4171 28.7658L23.389 34.223L25.4143 36.2478L30.7773 31.2996L31.015 43.3183L26.7321 43.6323V46.3013L31.0798 46.6315L31.1608 50.8057H34.0178L34.1042 46.637L38.495 46.3013V43.6323L34.169 43.3183L34.4121 31.3049L39.7697 36.2586L41.7895 34.2338L36.7776 28.7712L44.1767 28.4736L44.1767 25.6096Z" fill="#FF7B7C"/>
</g>
<defs>
<clipPath id="clip0_19_631">
<rect width="65" height="65" fill="white"/>
</clipPath>
</defs>
</svg>
