<svg width="65" height="65" viewBox="0 0 65 65" fill="none" xmlns="http://www.w3.org/2000/svg">
<path d="M32.5 65C50.4493 65 65 50.4493 65 32.5C65 14.5507 50.4493 0 32.5 0C14.5507 0 0 14.5507 0 32.5C0 50.4493 14.5507 65 32.5 65Z" fill="#22242F"/>
<path d="M32.5 1.29999C49.7313 1.29999 63.7001 15.2687 63.7001 32.5C63.7001 49.7313 49.7313 63.7 32.5 63.7C15.2688 63.7 1.30005 49.7313 1.30005 32.5C1.30005 15.2687 15.2688 1.29999 32.5 1.29999ZM32.5 3.50234C16.4851 3.50234 3.5024 16.485 3.5024 32.5C3.5024 48.5149 16.4851 61.4976 32.5 61.4976C48.515 61.4976 61.4977 48.5149 61.4977 32.5C61.4977 16.485 48.515 3.50234 32.5 3.50234Z" fill="#E53935"/>
<path d="M52.163 20.2041V17.37H43.1855C42.7038 15.5386 42.222 13.9254 41.6965 12.4429L38.6748 12.9661C39.2003 14.2742 39.7258 15.7567 40.2076 17.37H30.7045V20.2041H52.163ZM29.1718 41.2641V23.1691H24.7487C25.6683 21.8174 26.588 20.1605 27.5076 18.1548V16.0619H20.2818C20.6759 15.1898 21.0263 14.3178 21.3766 13.4021L18.5739 12.5301C17.2601 16.8031 15.2018 20.2477 12.4429 22.9075L13.0998 26.0032C13.6691 25.48 14.2384 24.9568 14.7639 24.39V41.2641H29.1718ZM21.727 23.1691H15.8587C16.9973 21.7738 18.0922 20.2041 19.0556 18.5472H24.5735C23.6101 20.2913 22.6904 21.861 21.727 23.1691ZM39.7696 52.5572C41.9593 52.5572 43.0979 51.3363 43.0979 48.9382V36.5114H50.061V24.1283H33.0255V36.5114H40.0324V48.1969C40.0324 49.287 39.5945 49.8538 38.7186 49.8538C37.7114 49.8538 36.6603 49.7666 35.6093 49.6358L36.2224 52.5572H39.7696ZM20.7197 30.9303H17.4791V25.7416H20.7197V30.9303ZM26.4566 30.9303H23.2597V25.7416H26.4566V30.9303ZM47.083 33.7645H36.0034V26.9189H47.083V33.7645ZM26.4566 38.648H23.2597V33.4593H26.4566V38.648ZM20.7197 38.648H17.4791V33.4593H20.7197V38.648ZM50.2361 50.5514L52.5572 48.9382C51.3747 46.1476 49.7106 42.921 47.521 39.2148L45.2 40.6101C47.302 44.2291 49.0099 47.5429 50.2361 50.5514ZM31.8869 51.2927C33.8138 48.2841 35.4779 44.7087 36.8793 40.6101L34.3393 39.3892C32.9817 43.3134 31.3614 46.7144 29.5221 49.5922L31.8869 51.2927ZM28.2521 48.3277L30.398 47.8045C29.7849 45.7116 29.1718 43.8803 28.4711 42.3106L26.4128 42.921C27.1135 44.6651 27.7266 46.4528 28.2521 48.3277ZM23.6101 50.8567L25.8873 50.595C25.6245 47.2813 25.1428 44.6651 24.4421 42.7466L22.2525 43.0082C22.9532 44.8395 23.3911 47.4557 23.6101 50.8567ZM15.2456 52.0339C16.1653 49.4614 16.7346 46.54 16.9973 43.2262L14.6325 42.921C14.4136 46.0604 13.8005 48.8509 12.837 51.2927L15.2456 52.0339ZM18.9242 51.5107L21.2014 51.2491C21.1139 47.8045 20.8949 45.0575 20.5883 43.0518L18.4863 43.3134C18.7053 45.2319 18.8366 47.9789 18.9242 51.5107Z" fill="#E53935"/>
</svg>
