<svg width="31" height="31" viewBox="0 0 31 31" fill="none" xmlns="http://www.w3.org/2000/svg">
<g id="wallet-connect-logo 1">
<g id="Layer_x0020_1">
<g id="_2806050136896">
<path id="Vector" d="M9.48495 11.5458C12.7997 8.30553 18.1878 8.30553 21.515 11.5458L21.9123 11.9307C22.0737 12.0921 22.0737 12.3528 21.9123 12.5142L20.5466 13.8426C20.4597 13.9295 20.3232 13.9295 20.2487 13.8426L19.7024 13.3087C17.3808 11.0492 13.6315 11.0492 11.3099 13.3087L10.7264 13.8798C10.6395 13.9667 10.503 13.9667 10.4285 13.8798L9.06285 12.5514C8.90145 12.39 8.90145 12.1293 9.06285 11.9679L9.49737 11.5458H9.48495ZM24.3332 14.3019L25.5498 15.4938C25.7112 15.6551 25.7112 15.9159 25.5498 16.0773L20.0624 21.4281C19.9011 21.5895 19.6279 21.5895 19.4665 21.4281L15.5683 17.6291C15.531 17.5919 15.4565 17.5919 15.4193 17.6291L11.521 21.4281C11.3596 21.5895 11.0865 21.5895 10.9251 21.4281L5.4377 16.0773C5.2763 15.9159 5.2763 15.6551 5.4377 15.4938L6.65436 14.3019C6.81575 14.1405 7.08888 14.1405 7.25027 14.3019L11.1485 18.1009C11.1858 18.1381 11.2603 18.1381 11.2975 18.1009L15.1958 14.3019C15.3572 14.1405 15.6303 14.1405 15.7917 14.3019L19.69 18.1009C19.7272 18.1381 19.8017 18.1381 19.839 18.1009L23.7373 14.3019C23.8986 14.1405 24.1718 14.1405 24.3332 14.3019Z" fill="white"/>
</g>
</g>
</g>
</svg>
