<svg width="60" height="60" viewBox="0 0 60 60" fill="none" xmlns="http://www.w3.org/2000/svg">
<rect x="21.5059" width="17.2043" height="4.61538" fill="white"/>
<rect x="21.5059" y="55.3846" width="17.2043" height="4.61538" fill="white"/>
<rect x="12.9023" y="4.61539" width="8.60216" height="4.61538" fill="white"/>
<rect x="12.9023" y="50.7692" width="8.60216" height="4.61538" fill="white"/>
<rect x="38.4941" y="50.7692" width="8.60216" height="4.61538" fill="white"/>
<rect x="8.60156" y="13.8462" width="9.23077" height="4.30108" transform="rotate(90 8.60156 13.8462)" fill="white"/>
<rect x="8.60156" y="36.9231" width="9.23077" height="4.30108" transform="rotate(90 8.60156 36.9231)" fill="white"/>
<rect x="4.30078" y="23.0769" width="13.8462" height="4.30108" transform="rotate(90 4.30078 23.0769)" fill="white"/>
<rect x="60" y="23.0769" width="13.8462" height="4.30108" transform="rotate(90 60 23.0769)" fill="white"/>
<rect x="12.9023" y="9.23077" width="4.61538" height="4.30108" transform="rotate(90 12.9023 9.23077)" fill="white"/>
<rect x="12.9023" y="46.1538" width="4.61538" height="4.30108" transform="rotate(90 12.9023 46.1538)" fill="white"/>
<rect x="51.3965" y="46.1538" width="4.61538" height="4.30108" transform="rotate(90 51.3965 46.1538)" fill="white"/>
<rect x="51.3965" y="9.23077" width="4.61538" height="4.30108" transform="rotate(90 51.3965 9.23077)" fill="white"/>
<rect x="38.4941" y="4.61539" width="8.60216" height="4.61538" fill="white"/>
<rect x="55.6992" y="13.8462" width="9.23077" height="4.30108" transform="rotate(90 55.6992 13.8462)" fill="white"/>
<rect x="55.6992" y="36.9231" width="9.23077" height="4.30108" transform="rotate(90 55.6992 36.9231)" fill="white"/>
</svg>
