<svg width="95" height="30" viewBox="0 0 95 30" fill="none" xmlns="http://www.w3.org/2000/svg">
<g id="Group 25">
<path id="Vector" d="M87.5273 23.6538C84.8118 23.6538 82.3431 22.503 80.7693 20.2946L83.0528 17.8064C84.1637 19.2993 85.9227 20.2013 87.5582 20.2013C89.0086 20.2013 90.0269 19.4237 90.0269 18.4284C90.0269 17.7752 89.5949 17.2154 88.7617 16.811C88.484 16.6555 87.8051 16.3756 86.725 15.9712C85.6758 15.5669 84.9661 15.2559 84.5958 15.0692C82.7134 14.1361 81.7876 12.7053 81.7876 10.7769C81.7876 9.31505 82.3431 8.102 83.454 7.16889C84.5649 6.23578 86.0461 5.76923 87.8668 5.76923C90.2429 5.76923 92.1561 6.60903 93.6065 8.25752L91.5081 10.8391C90.4281 9.68829 89.1628 9.09732 87.7433 9.09732C86.4781 9.09732 85.7067 9.7816 85.7067 10.6836C85.7067 11.4301 86.2004 11.99 87.157 12.3321C89.564 13.2963 90.9218 13.8562 91.1995 14.0117C93.0819 15.0381 94.0385 16.4689 94.0385 18.304C94.0385 19.8281 93.4522 21.1033 92.2487 22.1298C91.0452 23.1562 89.4714 23.6538 87.5273 23.6538Z" fill="white"/>
<path id="Vector_2" d="M80.7693 23.0769H75.8978L70.3045 15.8806L69.1016 16.9737V23.0769H65.1924V0H69.1016V12.4798L75.3865 6.58907H80.3784L73.0109 13.3907L80.7693 23.0769Z" fill="white"/>
<path id="Vector_3" d="M28.8307 23.6538C24.2176 23.6538 21.3459 20.8833 21.3459 16.1829V6.34613H25.348V16.1829C25.348 18.4553 26.6616 19.9495 28.8307 19.9495C31.0303 19.9495 32.3439 18.4553 32.3439 16.1829V6.34613H36.3459V16.1829C36.3459 20.8833 33.5048 23.6538 28.8307 23.6538Z" fill="white"/>
<path id="Vector_4" d="M13.3947 8.89674V6.74087H17.3077V30H13.3646V21.1639C11.9498 22.8036 10.1739 23.6235 8.06689 23.6235C5.74917 23.6235 3.82274 22.8036 2.28763 21.1336C0.752509 19.4635 0 17.3988 0 14.9696C0 12.5708 0.752509 10.5364 2.28763 8.86637C3.82274 7.19634 5.74917 6.34613 8.06689 6.34613C10.1739 6.34613 11.9498 7.19633 13.3947 8.89674ZM13.485 15C13.485 13.6032 13.0334 12.419 12.1605 11.4473C11.2876 10.4757 10.1438 9.98986 8.7291 9.98986C7.31438 9.98986 6.17057 10.4757 5.29766 11.4473C4.42475 12.419 3.97324 13.6032 3.97324 15C3.97324 16.4271 4.42475 17.6113 5.29766 18.583C6.17057 19.5243 7.31438 20.0101 8.7291 20.0101C10.1438 20.0101 11.2876 19.5243 12.1605 18.583C13.0334 17.6113 13.485 16.4271 13.485 15Z" fill="white"/>
<path id="Subtract" fill-rule="evenodd" clip-rule="evenodd" d="M44.4232 23.0769V6.34613H40.3848V23.0769H44.4232Z" fill="white"/>
<path id="Vector 4 (Stroke)" fill-rule="evenodd" clip-rule="evenodd" d="M55.0072 10.4645L62.3079 10.4645L62.3079 6.34613L55.0072 6.34613C51.3922 6.34613 48.4617 9.34238 48.4617 13.0384L48.4617 23.0769L52.4897 23.0769L52.4897 13.0384C52.4897 11.6169 53.6168 10.4645 55.0072 10.4645Z" fill="white"/>
</g>
</svg>
