<svg width="78" height="68" viewBox="0 0 78 68" fill="none" xmlns="http://www.w3.org/2000/svg">
<path d="M46.7637 43.2912C48.8727 46.7353 51.6165 49.2668 56.4692 49.2668C60.5458 49.2668 63.15 47.2289 63.15 44.4132C63.15 41.0389 60.4743 39.8438 55.9872 37.8807L53.5276 36.8252C46.428 33.8 41.7116 30.0102 41.7116 21.9984C41.7116 14.6182 47.3338 9 56.1202 9C62.3755 9 66.8726 11.1775 70.1133 16.8788L62.452 21.7989C60.7652 18.7737 58.9454 17.5819 56.1202 17.5819C53.2385 17.5819 51.4121 19.4104 51.4121 21.7989C51.4121 24.751 53.2401 25.9461 57.4613 27.7746L59.9209 28.8284C68.2802 32.4138 73 36.0689 73 44.2868C73 53.1464 66.0417 58 56.6969 58C47.5598 58 41.6568 53.645 38.7684 47.937L46.7637 43.2912ZM12.0086 44.1439C13.5542 46.8865 14.9602 49.2053 18.3404 49.2053C21.5728 49.2053 23.612 47.9404 23.612 43.0219V9.56182H33.4503V43.1549C33.4503 53.3442 27.4775 57.9817 18.7592 57.9817C10.8819 57.9817 6.32 53.9043 4 48.9934L12.0086 44.1439Z" fill="#FDE70A"/>
</svg>
