<svg width="78" height="68" viewBox="0 0 78 68" fill="none" xmlns="http://www.w3.org/2000/svg">
<path d="M62.8558 21.742C62.0544 21.4683 61.2472 21.2133 60.4343 20.9772C60.5691 20.4286 60.6934 19.8769 60.8073 19.3221C62.6411 10.404 61.4421 3.21945 57.3498 0.854369C53.4315 -1.41511 47.0055 0.949975 40.5231 6.60486C39.8857 7.16283 39.2614 7.73751 38.6501 8.32891C38.2426 7.93604 37.8247 7.55152 37.3963 7.17537C30.602 1.12865 23.792 -1.41824 19.7044 0.954678C15.7861 3.22886 14.6216 9.98244 16.272 18.435C16.437 19.2709 16.6225 20.1031 16.8284 20.9317C15.8645 21.206 14.9335 21.4991 14.0432 21.8094C6.08752 24.5914 1 28.9533 1 33.4765C1 38.1503 6.46054 42.8366 14.7564 45.6781C15.4293 45.907 16.1084 46.1196 16.7939 46.316C16.5713 47.2031 16.3744 48.1002 16.203 49.0071C14.6357 57.3139 15.8582 63.9076 19.7686 66.1677C23.8076 68.5014 30.5831 66.1034 37.1878 60.32C37.7103 59.8624 38.2327 59.3791 38.7552 58.8703C39.4155 59.5087 40.0947 60.1283 40.7927 60.7291C47.1873 66.2429 53.5021 68.4701 57.4063 66.2037C61.4421 63.8622 62.7539 56.7779 61.0503 48.1592C60.9197 47.5009 60.7692 46.8291 60.5989 46.1436C61.0753 46.0026 61.5419 45.8568 61.9985 45.7063C70.6188 42.8429 76.2345 38.213 76.2345 33.4813C76.2313 28.936 70.9808 24.546 62.8558 21.742ZM42.6374 9.03421C48.1904 4.18962 53.3814 2.27749 55.748 3.6442C58.2667 5.10024 59.2463 10.9714 57.6633 18.6717C57.5588 19.1732 57.446 19.6732 57.3247 20.1716C54.0108 19.4178 50.6504 18.8858 47.2657 18.5792C45.3278 15.7876 43.2034 13.1302 40.9071 10.625C41.4692 10.0796 42.045 9.54933 42.6343 9.03421H42.6374ZM23.2136 37.3416C23.8938 38.6581 24.6049 39.9585 25.3467 41.2426C26.1022 42.5529 26.8895 43.8438 27.7087 45.1155C25.3798 44.8623 23.0654 44.4893 20.7749 43.998C21.4394 41.8476 22.2575 39.6142 23.2136 37.3416ZM23.2136 29.7667C22.2732 27.5427 21.477 25.3547 20.8235 23.242C22.9707 22.7608 25.259 22.3674 27.6444 22.0696C26.8451 23.3172 26.0761 24.5831 25.3373 25.8672C24.5986 27.1514 23.8891 28.4512 23.2089 29.7667H23.2136ZM24.922 33.5549C25.9125 31.4892 26.9794 29.4632 28.1225 27.4769C29.2645 25.4916 30.4802 23.5518 31.7696 21.6574C34.0077 21.4881 36.3023 21.3988 38.6204 21.3988C40.9384 21.3988 43.2471 21.4881 45.4837 21.659C46.7595 23.5492 47.9679 25.4822 49.1089 27.458C50.2499 29.4339 51.3308 31.4505 52.3516 33.5079C51.3444 35.5809 50.2661 37.6153 49.1167 39.611C47.9767 41.5963 46.7751 43.5419 45.5119 45.4477C43.2784 45.6045 40.9666 45.6907 38.6157 45.6907C36.2647 45.6907 33.9968 45.617 31.8041 45.4744C30.5053 43.5737 29.2797 41.6256 28.1272 39.6298C26.9747 37.6341 25.9047 35.6091 24.9173 33.5549H24.922ZM51.8987 41.2207C52.6562 39.9062 53.3835 38.5745 54.0804 37.2256C55.0358 39.3918 55.8791 41.6056 56.6069 43.8585C54.2894 44.3803 51.9462 44.7805 49.5869 45.0575C50.3831 43.7942 51.1537 42.5153 51.8987 41.2207ZM54.0491 29.7683C53.3553 28.4465 52.6338 27.1404 51.8846 25.85C51.1532 24.5773 50.3909 23.3203 49.5979 22.079C51.9974 22.3831 54.2998 22.7874 56.458 23.2811C55.7641 25.4825 54.9601 27.6476 54.0491 29.7683ZM38.6517 12.9274C40.2168 14.6375 41.6945 16.4255 43.0794 18.2845C40.1172 18.1435 37.1528 18.1435 34.1864 18.2845C35.6487 16.3505 37.1455 14.5559 38.6517 12.9274ZM21.3219 3.7398C23.839 2.27906 29.4045 4.36673 35.271 9.5812C35.6456 9.91504 36.0233 10.2646 36.3995 10.6266C34.0914 13.1314 31.952 15.7865 29.9954 18.5745C26.6182 18.8788 23.2644 19.4023 19.9552 20.1418C19.7639 19.3728 19.5915 18.5985 19.4379 17.819C18.0195 10.5733 18.9583 5.11121 21.3219 3.7398ZM17.6528 43.2127C17.0258 43.0341 16.4067 42.8402 15.7955 42.6313C12.128 41.3774 9.09834 39.7411 7.01851 37.9591C5.15653 36.362 4.213 34.768 4.213 33.4765C4.213 30.7322 8.29744 27.2308 15.109 24.8563C15.9648 24.5585 16.8278 24.2863 17.6982 24.0397C18.7098 27.2908 19.935 30.4715 21.3657 33.5612C19.918 36.6935 18.6776 39.9177 17.6528 43.2127ZM35.0704 57.8938C32.1505 60.4517 29.2259 62.2651 26.6476 63.1788C24.3311 63.9985 22.4864 64.022 21.372 63.3779C18.9991 62.0065 18.0117 56.7105 19.358 49.6074C19.5179 48.7715 19.7007 47.9356 19.9066 47.0997C23.2489 47.8197 26.6364 48.3114 30.0456 48.5714C32.0212 51.3739 34.1783 54.0441 36.5029 56.5647C36.0359 57.024 35.5578 57.4659 35.0704 57.8938ZM38.741 54.2545C37.2176 52.6073 35.6973 50.7845 34.2146 48.8253C35.6555 48.8817 37.1225 48.9099 38.6157 48.9099C40.1485 48.9099 41.6657 48.877 43.1609 48.8096C41.781 50.6985 40.3059 52.5158 38.741 54.2545ZM58.2573 58.7355C57.8091 61.1554 56.9078 62.7697 55.7935 63.4155C53.4221 64.7916 48.3518 63.0033 42.885 58.2872C42.2581 57.7481 41.6312 57.1697 40.9933 56.5632C43.2726 54.0327 45.3791 51.3517 47.2986 48.5385C50.7266 48.2481 54.1305 47.7218 57.4862 46.9633C57.6398 47.584 57.7756 48.1921 57.8937 48.7877C58.6476 52.5963 58.7557 56.0412 58.2573 58.7355ZM60.9844 42.6485C60.5738 42.7849 60.1506 42.9165 59.7212 43.045C58.669 39.7787 57.396 36.5875 55.911 33.4938C57.3403 30.4413 58.5634 27.2965 59.5723 24.0805C60.3418 24.3046 61.0895 24.5397 61.8089 24.7889C68.7709 27.19 73.0183 30.7447 73.0183 33.4765C73.0183 36.3918 68.4308 40.1753 60.9844 42.6485Z" fill="#2B9FCA"/>
<path d="M38.6157 40.2097C39.9495 40.2141 41.2547 39.8225 42.3659 39.0846C43.4771 38.3467 44.3443 37.2957 44.8578 36.0646C45.3712 34.8335 45.5078 33.4777 45.2503 32.169C44.9927 30.8602 44.3526 29.6573 43.4109 28.7126C42.4693 27.7678 41.2684 27.1238 39.9605 26.8619C38.6526 26.6001 37.2964 26.7323 36.0636 27.2417C34.8309 27.7512 33.777 28.615 33.0355 29.7238C32.294 30.8325 31.8982 32.1364 31.8981 33.4703C31.8963 34.354 32.0686 35.2294 32.4053 36.0465C32.7419 36.8636 33.2363 37.6063 33.8602 38.2322C34.4841 38.8581 35.2252 39.3549 36.0411 39.6942C36.8571 40.0335 37.732 40.2087 38.6157 40.2097Z" fill="#2B9FCA"/>
</svg>
